<svg class="hidden">
  <symbol fill="none" xmlns="http://www.w3.org/2000/svg" viewBox="0 0 24 24" id="film">
    <path d="M19.82 2H4.18A2.18 2.18 0 002 4.18v15.64A2.18 2.18 0 004.18 22h15.64A2.18 2.18 0 0022 19.82V4.18A2.18 2.18 0 0019.82 2zM7 2v20M17 2v20M2 12h20M2 7h5M2 17h5m10 0h5M17 7h5" stroke="#818181" stroke-width="2" stroke-linecap="round" stroke-linejoin="round"></path>
    <path d="M19.82 2H4.18A2.18 2.18 0 002 4.18v15.64A2.18 2.18 0 004.18 22h15.64A2.18 2.18 0 0022 19.82V4.18A2.18 2.18 0 0019.82 2zM7 2v20M17 2v20M2 12h20M2 7h5M2 17h5m10 0h5M17 7h5"  stroke-width="2" stroke-linecap="round" stroke-linejoin="round"></path>
  </symbol>
  <symbol fill="none" xmlns="http://www.w3.org/2000/svg" viewBox="0 0 14 13" id="heart">
    <path d="M7 12.88l-.98-.98C2.38 8.68 0 6.51 0 3.85 0 1.68 1.68 0 3.85 0 5.04 0 6.23.56 7 1.47 7.77.56 8.96 0 10.15 0 12.32 0 14 1.68 14 3.85c0 2.66-2.38 4.83-6.02 8.05l-.98.98z" fill="#FF6B08"></path>
  </symbol>
  <symbol fill="none" xmlns="http://www.w3.org/2000/svg" viewBox="0 0 12 12" id="search">
    <path d="M5.5 9.5a4 4 0 100-8 4 4 0 000 8zm5 1L8.325 8.325" stroke="#fff" stroke-linecap="round" stroke-linejoin="round"></path>
    <path d="M5.5 9.5a4 4 0 100-8 4 4 0 000 8zm5 1L8.325 8.325" stroke-linecap="round" stroke-linejoin="round"></path>
  </symbol>
  <symbol aria-hidden="true" style="position:absolute; width:0; height:0" xmlns="http://www.w3.org/2000/svg" overflow="hidden" id="moon" viewBox="0 0 32 32">
    <path fill="currentColor" d="M17.701 32a15.97 15.97 0 0012.429-5.925c.442-.544-.04-1.339-.723-1.209-7.763 1.478-14.891-4.474-14.891-12.31 0-4.514 2.416-8.665 6.344-10.9.605-.345.453-1.262-.235-1.389-.879-.17-1.89-.267-2.923-.268-8.832 0-16 7.157-16 16 0 8.832 7.157 16 16 16z"/>
  </symbol>
  <symbol aria-hidden="true" style="position:absolute; width:0; height:0" xmlns="http://www.w3.org/2000/svg" overflow="hidden" id="sun" viewBox="0 0 32 32">
    <path fill="currentColor" d="M16 10c-3.306 0-6 2.694-6 6s2.694 6 6 6 6-2.694 6-6-2.694-6-6-6zm15.4 5.031l-5.919-2.956L27.575 5.8c.281-.85-.525-1.656-1.369-1.369l-6.275 2.094L16.969.6c-.4-.8-1.537-.8-1.938 0l-2.956 5.919-6.281-2.094c-.85-.281-1.656.525-1.369 1.369l2.094 6.275L.6 15.032c-.8.4-.8 1.538 0 1.938l5.919 2.956-2.094 6.281c-.281.85.525 1.656 1.369 1.369l6.275-2.094 2.956 5.919c.4.8 1.538.8 1.938 0l2.956-5.919 6.275 2.094c.85.281 1.656-.525 1.369-1.369l-2.094-6.275 5.919-2.956c.813-.406.813-1.544.012-1.944zm-9.744 6.625c-3.119 3.119-8.194 3.119-11.313 0s-3.119-8.194 0-11.313c3.119-3.119 8.194-3.119 11.313 0s3.119 8.194 0 11.313z"/>
  </symbol>
  <symbol id="icon-github" viewBox="0 0 32 32"><path  d="M32 16c0 8.837-7.163 16-16 16S0 24.837 0 16 7.163 0 16 0s16 7.163 16 16z"/><path d="M16 6.588c-5.169 0-9.412 4.242-9.412 9.412 0 4.411 3.095 8.419 7.206 9.412v-3.114a2.307 2.307 0 01-1.197-.03c-.556-.164-1.008-.535-1.344-1.1-.214-.361-.593-.752-.988-.723l-.097-1.099c.855-.073 1.595.521 2.034 1.259.195.328.419.52.708.605.278.082.578.043.926-.08.088-.698.407-.959.648-1.326v-.001c-2.451-.366-3.428-1.666-3.816-2.693-.514-1.363-.238-3.066.671-4.142.018-.021.05-.076.037-.114-.417-1.258.091-2.299.11-2.41.481.142.559-.143 2.089.786l.264.159c.111.066.076.028.186.02A8.031 8.031 0 0116 11.131a8.016 8.016 0 012.002.285l.086.009c-.007-.001.023-.005.075-.036 1.911-1.157 1.842-.779 2.355-.946.019.111.519 1.169.107 2.411-.056.171 1.657 1.739.708 4.256-.388 1.027-1.365 2.328-3.816 2.693v.001c.314.479.692.734.69 1.722v3.887c4.111-.993 7.206-5 7.206-9.412 0-5.169-4.242-9.412-9.412-9.412z"/></symbol>
</svg>
